<svg id="Capa_1" enable-background="new 0 0 512 512" height="512" viewBox="0 0 512 512" width="512" xmlns="http://www.w3.org/2000/svg"><g><g><path d="m510.417 490.292-241-482c-2.542-5.082-7.735-8.292-13.417-8.292s-10.875 3.21-13.417 8.292l-241 482c-2.325 4.649-2.076 10.172.657 14.594s7.561 7.114 12.76 7.114h482c5.199 0 10.027-2.692 12.76-7.114s2.981-9.945.657-14.594z" fill="#f7f5f3"/><path d="m510.417 490.292-241-482c-2.542-5.082-7.735-8.292-13.417-8.292v512h241c5.199 0 10.027-2.692 12.76-7.114s2.981-9.945.657-14.594z" fill="#ebe6e1"/></g><g><path d="m15.001 291c-8.284 0-15 6.716-15 15s6.716 15 15 15h86.229v-30z" fill="#dbd9d2"/></g><path d="m497 151h-156.229l-239.542 140-15 30 269.541-140h141.23c8.284 0 15-6.716 15-15s-6.716-15-15-15z" fill="#ffe278"/><g><path d="m497 211h-126.229l-269.541 80-15 30 299.541-80h111.229c8.284 0 15-6.716 15-15s-6.716-15-15-15z" fill="#afea93"/><path d="m497 270.67h-96.394l-299.377 20.33-15 30 329.376-20.33h81.395c8.284 0 15-6.716 15-15s-6.716-15-15-15z" fill="#bceaf9"/></g><path d="m497 331h-66.229l-329.541-40-15 30 359.541 40h51.229c8.284 0 15-6.716 15-15s-6.716-15-15-15z" fill="#f17ab4"/><path d="m355.771 181-15-30-84.771 49.544v32.277z" fill="#ffb454"/><path d="m400.606 270.67-144.606 9.82v30.031l159.606-9.851z" fill="#7dd5f4"/><path d="m385.771 241-15-30-114.771 34.064v30.594z" fill="#00da80"/><path d="m430.771 331-174.771-21.214v30.101l189.771 21.113z" fill="#ff3d7d"/></g></svg>